<?xml version="1.0" standalone="no"?>
<!DOCTYPE svg PUBLIC "-//W3C//DTD SVG 20010904//EN"
 "http://www.w3.org/TR/2001/REC-SVG-20010904/DTD/svg10.dtd">
<svg version="1.0" xmlns="http://www.w3.org/2000/svg"
 width="841.000000pt" height="841.000000pt" viewBox="0 0 841.000000 841.000000"
 preserveAspectRatio="xMidYMid meet">
<metadata>
Created by potrace 1.14, written by Peter Selinger 2001-2017
</metadata>
<g transform="translate(0.000000,841.000000) scale(0.100000,-0.100000)"
fill="#000000" stroke="none">
<path d="M1870 5799 l0 -406 1470 0 c809 0 1473 -3 1476 -6 4 -4 -653 -667
-1460 -1474 l-1467 -1467 288 -288 288 -288 1472 1472 1473 1473 0 -1480 0
-1481 398 2 c218 0 402 2 407 3 14 2 14 4340 0 4342 -5 1 -985 3 -2177 3
l-2168 2 0 -407z"/>
</g>
</svg>
